<?xml version="1.0" encoding="UTF-8"?>
<svg id="Layer_1" xmlns="http://www.w3.org/2000/svg" version="1.1" viewBox="0 0 217 216.9">
  <!-- Generator: Adobe Illustrator 30.1.0, SVG Export Plug-In . SVG Version: 2.1.1 Build 136)  -->
  <defs>
    <style>
      .st0 {
        fill: #4b4b4b;
      }

      .st1 {
        fill: #ece6d9;
      }
    </style>
  </defs>
  <circle class="st1" cx="108.5" cy="108.4" r="107.6"/>
  <g>
    <path class="st0" d="M131,137.6l-.9,1.8c-3.2,5.9-12.1,10.1-21.3,10.1h-4.3v2.4h26.7v-2c.8-3.8,1.7-8.8,2.4-12.4h-2.6ZM63.8,140V49.5c0-5,2.3-7.5,5.9-7.5v-3.2h-27v3c3.6,0,5.9,2.6,5.9,7.5v92.1c0,5-2.3,7.5-5.9,7.5v3h40.4v-2.4h-7.2c-10.6,0-12.1-3.9-12.1-9.5Z"/>
    <path class="st0" d="M80.4,183v-3.8c3.6,0,5.9-2.6,5.9-7.5v-90.6c0-5-2.3-7.5-5.9-7.5v-3.8h39.5c44.5,0,56.9,11.5,56.9,27.2s-19.2,24.8-47.1,27.3c30,1.5,51.2,13.4,51.2,29.4,0,23.1-25.8,29.4-61.6,29.4l-38.9-.2ZM164.3,153.7c0-16.3-17.5-28.2-41.8-28.8-2,.2-4.1.2-6.2.2h-15.1v44.4c0,7.8,3.9,13.4,9.4,13.4h7.5c26.7,0,46.2-6.3,46.2-29.1ZM161.7,98.5c0-16.1-9.4-27.9-43.3-27.9h-17.1v53.6h14.6c26.6,0,45.7-10.7,45.7-25.7Z"/>
  </g>
</svg>