<?xml version="1.0" encoding="UTF-8"?>
<svg id="Layer_1" xmlns="http://www.w3.org/2000/svg" version="1.1" viewBox="0 0 1562.4 200.1">
  <!-- Generator: Adobe Illustrator 30.1.0, SVG Export Plug-In . SVG Version: 2.1.1 Build 136)  -->
  <defs>
    <style>
      .st0 {
        fill: #4b4b4b;
      }
    </style>
  </defs>
  <g>
    <path class="st0" d="M163.4,188.3c0,6.6-4.9,10.4-14.7,10.4h-18v-39h16.8c8.7,0,13.7,3.7,13.7,10s-2.4,7.4-6,8.9c5,1.1,8,4.4,8,9.7ZM134.9,163.1v14.2h12.4c6.2,0,9.9-2.4,9.9-7.1s-3.6-7.1-9.9-7.1h-12.4ZM159.3,188c0-5.1-3.7-7.3-10.6-7.3h-13.8v14.7h13.8c6.9,0,10.6-2.2,10.6-7.4Z"/>
    <path class="st0" d="M200.5,195.2v3.6h-27.6v-39h26.8v3.6h-22.6v13.9h20.2v3.5h-20.2v14.5h23.5Z"/>
    <path class="st0" d="M234.6,188.3h-21.8l-4.7,10.4h-4.3l17.8-39h4.1l17.8,39h-4.4l-4.7-10.4ZM233.1,185l-9.4-21-9.4,21h18.7Z"/>
    <path class="st0" d="M249,182.1v-22.4h4.1v22.2c0,9.3,4.4,13.5,11.9,13.5s12-4.2,12-13.5v-22.2h4v22.4c0,11.2-6,17-16,17s-16.1-5.8-16.1-17Z"/>
    <path class="st0" d="M300.3,163.3h-13.7v-3.6h31.6v3.6h-13.7v35.5h-4.1v-35.5Z"/>
    <path class="st0" d="M324.7,159.7h4.1v39h-4.1v-39Z"/>
    <path class="st0" d="M345.7,163.3v15.3h20.2v3.6h-20.2v16.6h-4.1v-39h26.8v3.6h-22.6Z"/>
    <path class="st0" d="M376.5,182.1v-22.4h4.1v22.2c0,9.3,4.3,13.5,11.9,13.5s12-4.2,12-13.5v-22.2h4v22.4c0,11.2-6,17-16,17s-16.1-5.8-16.1-17Z"/>
    <path class="st0" d="M421,159.7h4.1v35.5h21.9v3.6h-26v-39Z"/>
    <path class="st0" d="M453.9,159.7h4.1v35.5h21.9v3.6h-26v-39Z"/>
    <path class="st0" d="M496,185.3v13.5h-4.1v-13.5l-15.6-25.5h4.4l13.4,21.9,13.4-21.9h4.1l-15.6,25.5Z"/>
    <path class="st0" d="M565.2,188.3c0,6.6-4.9,10.4-14.7,10.4h-18v-39h16.8c8.7,0,13.7,3.7,13.7,10s-2.4,7.4-6,8.9c5,1.1,8,4.4,8,9.7ZM536.7,163.1v14.2h12.4c6.2,0,9.9-2.4,9.9-7.1s-3.6-7.1-9.9-7.1h-12.4ZM561.1,188c0-5.1-3.7-7.3-10.6-7.3h-13.8v14.7h13.8c6.9,0,10.6-2.2,10.6-7.4Z"/>
    <path class="st0" d="M571.2,179.2c0-11.4,8.7-19.9,20.5-19.9s20.5,8.4,20.5,19.9-8.8,19.9-20.5,19.9-20.5-8.5-20.5-19.9ZM608.1,179.2c0-9.3-7-16.2-16.3-16.2s-16.5,6.9-16.5,16.2,7,16.2,16.5,16.2,16.3-6.9,16.3-16.2Z"/>
    <path class="st0" d="M621.1,182.1v-22.4h4.1v22.2c0,9.3,4.4,13.5,11.9,13.5s12-4.2,12-13.5v-22.2h4v22.4c0,11.2-6,17-16,17s-16.1-5.8-16.1-17Z"/>
    <path class="st0" d="M698.2,159.7v39h-3.4l-25.1-31.7v31.7h-4.1v-39h3.4l25.2,31.7v-31.7h4.1Z"/>
    <path class="st0" d="M710.9,159.7h15.9c12.5,0,20.9,8,20.9,19.5s-8.4,19.5-20.9,19.5h-15.9v-39ZM726.6,195.2c10.4,0,17.1-6.6,17.1-16s-6.7-16-17.1-16h-11.5v31.9h11.5Z"/>
    <path class="st0" d="M825.2,159.7l-13.2,39h-4.3l-11.4-33.3-11.5,33.3h-4.3l-13.2-39h4.2l11.3,33.6,11.7-33.6h3.8l11.5,33.7,11.4-33.7h4Z"/>
    <path class="st0" d="M860.3,195.2v3.6h-27.6v-39h26.8v3.6h-22.6v13.9h20.2v3.5h-20.2v14.5h23.5Z"/>
    <path class="st0" d="M870,159.7h15.9c12.5,0,20.9,8,20.9,19.5s-8.4,19.5-20.9,19.5h-15.9v-39ZM885.7,195.2c10.4,0,17.1-6.6,17.1-16s-6.7-16-17.1-16h-11.5v31.9h11.5Z"/>
    <path class="st0" d="M916.1,159.7h15.9c12.5,0,20.9,8,20.9,19.5s-8.4,19.5-20.9,19.5h-15.9v-39ZM931.8,195.2c10.4,0,17.1-6.6,17.1-16s-6.7-16-17.1-16h-11.5v31.9h11.5Z"/>
    <path class="st0" d="M962.2,159.7h4.1v39h-4.1v-39Z"/>
    <path class="st0" d="M1011.6,159.7v39h-3.4l-25.1-31.7v31.7h-4.1v-39h3.4l25.2,31.7v-31.7h4.1Z"/>
    <path class="st0" d="M1051.8,179.2h4v14.9c-3.7,3.3-8.9,5-14.3,5-11.9,0-20.6-8.4-20.6-19.9s8.7-19.9,20.6-19.9,11,1.9,14.5,5.6l-2.6,2.6c-3.3-3.2-7.2-4.6-11.8-4.6-9.7,0-16.7,6.9-16.7,16.2s7.1,16.2,16.7,16.2,7.2-.8,10.2-3v-13.2Z"/>
    <path class="st0" d="M1082.1,159.7h4.1v39h-4.1v-39Z"/>
    <path class="st0" d="M1131.5,159.7v39h-3.4l-25.1-31.7v31.7h-4.1v-39h3.4l25.2,31.7v-31.7h4.1Z"/>
    <path class="st0" d="M1176.2,159.7l-17.3,39h-4.1l-17.3-39h4.5l14.9,33.9,15.1-33.9h4.2Z"/>
    <path class="st0" d="M1181.9,159.7h4.1v39h-4.1v-39Z"/>
    <path class="st0" d="M1206.3,163.3h-13.7v-3.6h31.6v3.6h-13.7v35.5h-4.1v-35.5Z"/>
    <path class="st0" d="M1253.3,188.3h-21.8l-4.7,10.4h-4.3l17.8-39h4.1l17.8,39h-4.4l-4.7-10.4ZM1251.7,185l-9.4-21-9.4,21h18.7Z"/>
    <path class="st0" d="M1274.4,163.3h-13.7v-3.6h31.6v3.6h-13.7v35.5h-4.1v-35.5Z"/>
    <path class="st0" d="M1298.8,159.7h4.1v39h-4.1v-39Z"/>
    <path class="st0" d="M1312.2,179.2c0-11.4,8.7-19.9,20.5-19.9s20.5,8.4,20.5,19.9-8.8,19.9-20.5,19.9-20.5-8.5-20.5-19.9ZM1349.1,179.2c0-9.3-7-16.2-16.3-16.2s-16.5,6.9-16.5,16.2,7,16.2,16.5,16.2,16.3-6.9,16.3-16.2Z"/>
    <path class="st0" d="M1395.1,159.7v39h-3.4l-25.1-31.7v31.7h-4.1v-39h3.4l25.2,31.7v-31.7h4.1Z"/>
    <path class="st0" d="M1404,194l1.6-3.2c2.8,2.7,7.8,4.7,12.9,4.7,7.3,0,10.5-3.1,10.5-6.9,0-10.7-24-4.1-24-18.6s4.5-10.7,14.4-10.7,9,1.3,12.1,3.5l-1.4,3.3c-3.3-2.2-7.3-3.2-10.7-3.2-7.1,0-10.3,3.2-10.3,7.1,0,10.7,24,4.2,24,18.5s-4.6,10.7-14.6,10.7-11.6-2.1-14.5-5.1Z"/>
  </g>
  <g>
    <path class="st0" d="M26.6,5.3c-3.4,0-5.5,2.4-5.5,7v83.9c0,5.2,1.4,8.8,11.2,8.8h30.5c8.5,0,16.8-3.9,19.7-9.4l.8-1.7h2.4c-.7,3.4-1.5,8-2.2,11.5v1.8H1.6v-2.8c3.4,0,5.5-2.4,5.5-7V12.2c0-4.6-2.1-7-5.5-7v-2.8h24.9v2.9Z"/>
    <path class="st0" d="M153.9,1c35.2,0,60.7,22.6,60.7,53.8s-26,53.8-62.1,53.8-57.9-22.6-57.9-53.8S119.5,1,153.9,1ZM152.6,107.7c27.1,0,46.8-22.2,46.8-52.8S180.3,2,153.7,2s-43.9,22.2-43.9,52.8,18,52.8,42.8,52.8Z"/>
    <path class="st0" d="M233.7,18.8c-3.9-8-7.6-12.9-10.2-12.9v-3.5h30.9v3.5h-1.5c-5.2,0-6.4,5.3-3.4,12.9l34.1,73.3,33.1-73.5c2.8-7.3.7-12.4-5.3-12.4h-2v-3.5h24.6v3.5c-3.9,0-8,4.5-12,12.3l-43.2,90.4h-2.8c-14.3-29.9-28.4-60-42.5-89.9h.1Z"/>
    <path class="st0" d="M346.9,107.2v-2.8h1.3c4.1,0,7-4.1,7-9.8V15c0-5.7-2.9-9.8-7-9.8h-1.3v-2.8h78.1v.3c.4,3.8,1.1,9.1,1.7,12.9h-2.4l-.8-1.8c-2.7-6.2-9.4-10.6-15.9-10.6h-38.4v49.5h29.9c6.4,0,12.6-4.5,14.5-10.6l.6-1.8h2.4v12.4h.1v.8h-.1v12.4h-2.4l-.6-1.8c-2-6.2-8.1-10.6-14.5-10.6h-29.9v42.6c0,6,1.4,10.5,11.2,10.5h27.3c8.5,0,16.8-3.9,19.7-9.4l.8-1.7h2.4c-.3,1.4-2,11.2-2,11.7h-81.6Z"/>
    <path class="st0" d="M443.9,107.1v-3.5c3.4,0,5.5-2.4,5.5-7V12.7c0-4.6-2.1-7-5.5-7v-3.5h36.6c41.2,0,52.7,10.6,52.7,25.2s-17.8,22.9-43.6,25.3c27.8,1.4,47.4,12.4,47.4,27.3,0,21.4-23.9,27.3-57,27.3h-36.1ZM521.6,80c0-15.1-16.2-26.1-38.7-26.7-1.8.1-3.8.1-5.7.1h-14v41.1c0,7.3,3.6,12.4,8.7,12.4h7c24.7,0,42.8-5.9,42.8-27ZM519.2,28.8c0-15-8.7-25.9-40.1-25.9h-15.8v49.6h13.6c24.6,0,42.4-9.9,42.4-23.8Z"/>
    <path class="st0" d="M608.8,1c35.2,0,60.7,22.6,60.7,53.8s-26,53.8-62.1,53.8-57.9-22.6-57.9-53.8S574.5,1,608.8,1ZM607.6,107.7c27.1,0,46.8-22.2,46.8-52.8S635.3,2,608.7,2s-43.9,22.2-43.9,52.8,18,52.8,42.8,52.8Z"/>
    <path class="st0" d="M782,103.8c-.3.1-5.5,1.3-5.5,1.7l-7,1.8h-7v-22.8c-6.6,14-23.2,24.2-39.8,24.2s-36.6-14.5-36.6-34.7V12.2c0-4.6-2.1-7-5.5-7v-2.8h19.4v71.6c0,15,11.9,25.7,28.2,25.7s28.4-9.1,34.3-21.5V12.2c0-4.6-2.1-7-5.5-7v-2.8h19.4v93.2c0,4.8,2.4,6.4,5.5,5.5v2.7Z"/>
    <path class="st0" d="M785.7,2.5h20.4c25,27.8,50,55.6,75.1,83.5V12.2c-.1-4.6-2.2-7-5.6-7v-2.8h15.1v2.8c-3.2,0-5.2,2-5.6,6l-1,96h-2.8c-26.1-29.6-52.3-59.3-78.4-88.9l.4,79.1c0,4.6,2.1,7,5.5,7v2.8h-15.1v-2.8c3.4,0,5.5-2.4,5.5-7V14.3c.1,0-2.5-2.9-2.5-2.9-3.9-4.1-7.4-6.2-10.9-6.2v-2.7Z"/>
    <path class="st0" d="M907.3,2.4h43.8c43.8,0,68.6,21.9,68.6,52.4s-32.3,52.4-76.7,52.4h-35.6v-2.8c3.4,0,5.5-2.4,5.5-7V12.2c0-4.6-2.1-7-5.5-7v-2.8ZM1004.3,54.8c0-30.1-20.4-51.7-56.2-51.7h-21.4v93c0,6,2,10.5,15.1,10.5,36.2,0,62.5-18.7,62.5-51.7Z"/>
    <path class="st0" d="M1114.7,107.2h-24.9v-2.8c3.4,0,5.5-2.4,5.5-7V12.2c0-4.6-2.1-7-5.5-7v-2.8h39.7c27.1,0,46.8,12.4,46.8,29.5s-23.9,27.3-57,27.3h-10.1v38.3c0,4.6,2.1,7,5.5,7v2.8ZM1119.3,56.2c25.4,0,43.9-8.8,43.9-26.6s-15.7-24.9-37.2-24.9h-16.8v51.4h10.1Z"/>
    <path class="st0" d="M1187.7,2.4h46.4c22.9,0,39.6,12.4,39.6,29.6s-10.3,21.5-25.9,24.5c4.2,6.2,14.1,21,26.6,39.6,5.2,7.8,6.4,8.4,17.2,8.4v2.8c-24.2,0-26.6-.8-33.6-11.2-12.3-18.2-21.8-33.1-24.6-38.4h-26.4v39.8c0,4.6,2.1,7,5.5,7v2.8h-24.9v-2.8c3.4,0,5.5-2.4,5.5-7V12.2c0-4.6-2.1-7-5.5-7v-2.8ZM1234.1,54.1c14,0,24-8.2,24-24.9s-11.9-24-28.2-24h-22.8v48.9h27Z"/>
    <path class="st0" d="M1298.5,107.2v-2.8h1.3c4.1,0,7-4.1,7-9.8V15c0-5.7-2.9-9.8-7-9.8h-1.3v-2.8h78.1v.3c.4,3.8,1.1,9.1,1.7,12.9h-2.4l-.8-1.8c-2.7-6.2-9.4-10.6-15.9-10.6h-38.4v49.5h29.9c6.4,0,12.6-4.5,14.5-10.6l.6-1.8h2.4v12.4h.1v.8h-.1v12.4h-2.4l-.6-1.8c-2-6.2-8.1-10.6-14.5-10.6h-29.9v42.6c0,6,1.4,10.5,11.2,10.5h27.3c8.5,0,16.8-3.9,19.7-9.4l.8-1.7h2.4c-.3,1.4-2,11.2-2,11.7h-81.6Z"/>
    <path class="st0" d="M1465.6,8.4v15.7h-3.1l-1.4-2.7c-3.4-7-10.2-13.7-16.5-16.4-5-2-10.8-3.1-16.6-3.1-12,0-20.8,8.9-20.8,21.4s11.7,16.8,32.4,24.3c20.1,7.3,31.6,20.3,31.6,32.3s-15.1,28.8-35.8,28.8-20-2.9-27.8-7.7c-5.2-3.1-9.5-4.1-10.3-1.8l-.6,1.7h-2.5v-20.7h3.2l1.3,2.9c3.5,7.8,10.5,15.8,16.6,19.2,6.2,3.4,13.1,5.3,20.1,5.3,14.3,0,24.6-9.9,24.6-23.6s-10.5-15.1-28.8-21.8c-22.4-8.1-35.1-21.5-35.1-33.6s13.4-27.5,31.9-27.5,11.3.7,16.4,2.1l.3-.6c1.7.6,3.2,1.3,4.8,2.1,2.2.8,11.5,6,13,4.2l.7-.7h2.5Z"/>
    <path class="st0" d="M1555.2,8.4v15.7h-3.1l-1.4-2.7c-3.4-7-10.2-13.7-16.5-16.4-5-2-10.8-3.1-16.6-3.1-12,0-20.8,8.9-20.8,21.4s11.7,16.8,32.4,24.3c20.1,7.3,31.6,20.3,31.6,32.3s-15.1,28.8-35.8,28.8-20-2.9-27.8-7.7c-5.2-3.1-9.5-4.1-10.3-1.8l-.6,1.7h-2.5v-20.7h3.2l1.3,2.9c3.5,7.8,10.5,15.8,16.6,19.2,6.2,3.4,13.1,5.3,20.1,5.3,14.3,0,24.6-9.9,24.6-23.6s-10.5-15.1-28.8-21.8c-22.4-8.1-35.1-21.5-35.1-33.6s13.4-27.5,31.9-27.5,11.3.7,16.4,2.1l.3-.6c1.7.6,3.2,1.3,4.8,2.1,2.2.8,11.5,6,13,4.2l.7-.7h2.5Z"/>
  </g>
</svg>